<svg width="120" height="42" viewBox="0 0 120 42" fill="none" xmlns="http://www.w3.org/2000/svg">
<path d="M85.9502 11.365L85.601 12.3714L77.5371 35.58L69.4678 12.3336C69.2661 11.7539 68.7206 11.365 68.1067 11.365H57.263V9.72482C57.263 8.02887 57.6339 6.84602 58.3756 6.17448C59.1174 5.46873 60.4065 5.11406 62.2429 5.11406V0.0802002C58.4279 0.0802002 55.6193 0.857963 53.8189 2.41169C52.0527 3.93121 51.1705 6.36712 51.1705 9.72303V11.3632H47.7264C45.7136 11.3632 43.9654 11.7358 42.4819 12.5838C41.0344 13.3958 39.8678 14.5444 38.9856 16.0279V11.3632H32.9453V41.0802H38.9856V25.6168C38.9856 22.6497 39.5869 20.5649 40.7878 19.364C42.0246 18.1632 43.825 17.1676 46.1925 17.1676H51.1723V41.0784H57.2648V17.1676H63.856C64.4537 17.1676 64.9902 17.5385 65.2027 18.0966L73.7905 40.7381L73.9201 41.0784H81.0514L81.2044 40.6787L91.9419 12.5082L92.3632 11.3632H85.952L85.9502 11.365Z" fill="#171717"/>
<path d="M119.046 25.5285C119.046 22.7451 118.455 20.293 117.272 18.1722C116.09 16.0153 114.437 14.3464 112.316 13.1635C110.195 11.9807 107.777 11.3901 105.064 11.3901C102.351 11.3901 99.7421 11.9987 97.551 13.2157C95.3942 14.4328 93.7072 16.1719 92.4902 18.4332C91.3073 20.6603 90.7168 23.251 90.7168 26.2072C90.7168 29.1635 91.3253 31.7722 92.5424 34.0335C93.7954 36.2588 95.4986 37.9997 97.6555 39.251C99.8465 40.468 102.317 41.0766 105.064 41.0766C108.438 41.0766 111.256 40.2412 113.517 38.5722C115.812 36.8673 117.395 34.6942 118.264 32.0495H111.846C110.525 34.7284 108.263 36.0679 105.062 36.0679C102.837 36.0679 100.957 35.373 99.427 33.9813C97.8967 32.5896 97.0451 30.746 96.8705 28.4505H118.837C118.976 27.5809 119.046 26.6069 119.046 25.5285ZM96.9227 23.6507C97.2018 21.4236 98.0713 19.6683 99.5314 18.381C100.992 17.0595 102.749 16.3988 104.801 16.3988C107.062 16.3988 108.958 17.0595 110.489 18.381C112.019 19.7025 112.802 21.4597 112.836 23.6507H96.9227Z" fill="#171717"/>
<path d="M24.4235 11.374V16.0171C23.4153 14.6957 22.0578 13.5992 20.3529 12.7296C18.6839 11.8259 16.7179 11.3722 14.4566 11.3722C11.9523 11.3722 9.65682 11.9987 7.57018 13.25C5.51775 14.467 3.883 16.19 2.66595 18.4152C1.4831 20.6423 0.892578 23.1988 0.892578 26.0848C0.892578 28.9709 1.4831 31.5634 2.66595 33.8589C3.883 36.1202 5.51775 37.8935 7.57018 39.1808C9.62261 40.4339 11.8839 41.0586 14.354 41.0586C16.5811 41.0586 18.5633 40.6067 20.3024 39.7029C22.0416 38.7991 23.4153 37.6685 24.4235 36.311V41.0586H30.4242V11.3704H24.4235V11.374ZM23.1704 31.4104C22.3711 32.8705 21.3089 33.9849 19.9874 34.7501C18.6659 35.5152 17.24 35.8987 15.7097 35.8987C14.1794 35.8987 12.7877 35.517 11.432 34.7501C10.1105 33.9507 9.03209 32.8021 8.19671 31.3059C7.39734 29.8098 6.99586 28.0707 6.99586 26.0884C6.99586 24.1062 7.39554 22.4013 8.19671 20.9754C9.03209 19.5153 10.1105 18.4188 11.432 17.6879C12.7535 16.9227 14.1794 16.5392 15.7097 16.5392C17.24 16.5392 18.6659 16.9209 19.9874 17.6879C21.3089 18.453 22.3693 19.5657 23.1704 21.0276C24.0058 22.4877 24.4235 24.2107 24.4235 26.1929C24.4235 28.1751 24.0058 29.9143 23.1704 31.4104Z" fill="#171717"/>
</svg> 